<svg id="Layer_1" data-name="Layer 1" xmlns="http://www.w3.org/2000/svg" viewBox="0 0 393.55 329.62"><defs><style>.logo-cls-1{fill:#c9ab82;}.logo-cls-2{fill:#936037;}.logo-cls-3{fill:#7d4e24;}.logo-cls-4{fill:#b17f4a;}.logo-cls-5{fill:#fff;}.logo-cls-6{fill:#ca9e67;}</style></defs><path class="logo-cls-1" d="M281.05,334.37c1.79-3.52-24.28-26.3-59.57-31.92-9.73-1.55-23.69-3.6-39.9,2.13-26,9.19-38.07,31.45-41.49,37.77C131,359.19,130,374.54,129.45,385.43c-1.44,28.22,7.37,49.55,12.77,62.24,9,21.12,20.15,35,27.13,43.62A219.72,219.72,0,0,0,208.18,528a194.68,194.68,0,0,0,30.08,18.57c13.29,6.53,30.7,13.05,31.62,11.22,1.13-2.24-24.16-13.7-54.25-38.83-12.14-10.14-22.15-18.5-32.45-31.39-6.58-8.23-38.79-48.52-33.51-99.47,1-9.48,2.53-22.91,11.7-36.7,13.75-20.68,35-27.65,40.43-29.26C242.06,310.26,279,338.47,281.05,334.37Z" transform="translate(-129.3 -247.54)"/><path class="logo-cls-1" d="M286.9,304.58c1,1.74,17.09-8.5,45.13-13.82,20.82-3.94,32.63-2.21,36.26-1.61a93.58,93.58,0,0,1,27.37,9.4c7.82,3.91,16.89,8.44,25.29,17.73,8,8.85,11.29,17.61,14.36,25.53,7.72,19.91,7.6,37.05,7.45,46.28-.4,24.61-7.12,42.75-11.7,54.79a199.58,199.58,0,0,1-30.85,53.19c-15.6,19.4-30.61,30.81-44.15,41-38,28.48-71,38-70.22,39.9.67,1.64,25.75-5.35,51.6-18.09A268.83,268.83,0,0,0,376.8,534.9c11.76-8.57,32.82-24.17,53.19-50.53,11.72-15.16,28.87-37.34,37.24-71.28,3.62-14.68,8.73-36.48,2.13-63.3-2.11-8.57-7.48-29.29-25.54-48.4-4.71-5-26.84-27.4-62.76-31.39-26.42-2.93-46.29,5.66-59.05,11.17C301.33,290.11,285.94,302.81,286.9,304.58Z" transform="translate(-129.3 -247.54)"/><polygon class="logo-cls-2" points="28.68 133.58 148.63 89.82 294.76 177.46 172.51 240.29 28.68 133.58"/><polygon class="logo-cls-2" points="28.68 133.58 28.68 162.89 169.21 283.11 172.51 240.29 28.68 133.58"/><polygon class="logo-cls-3" points="169 282.73 289.79 212.71 294.02 176.59 171.74 240.38 169 282.73"/><polygon class="logo-cls-4" points="40.97 173.4 40.97 187.36 54.41 200.13 56.59 186.77 40.97 173.4"/><polygon class="logo-cls-4" points="125.31 246.11 125.31 260.07 140.3 272.83 142.72 259.47 125.31 246.11"/><polygon class="logo-cls-2" points="54.41 200.13 66.54 195.28 56.59 186.77 54.41 200.13"/><polygon class="logo-cls-2" points="140.3 272.83 149.62 266.36 142.72 259.47 140.3 272.83"/><ellipse class="logo-cls-4" cx="140.3" cy="123.53" rx="27.97" ry="13.57"/><rect class="logo-cls-4" x="112.32" y="100.69" width="55.94" height="22.83"/><ellipse class="logo-cls-5" cx="140.3" cy="100.69" rx="27.97" ry="13.57"/><ellipse class="logo-cls-1" cx="140.29" cy="98.44" rx="16.65" ry="7.23"/><ellipse class="logo-cls-4" cx="88.56" cy="148.91" rx="27.97" ry="13.57"/><rect class="logo-cls-4" x="60.59" y="126.07" width="55.94" height="22.83"/><ellipse class="logo-cls-5" cx="88.56" cy="126.07" rx="27.97" ry="13.57"/><ellipse class="logo-cls-1" cx="88.55" cy="123.82" rx="16.65" ry="7.23"/><ellipse class="logo-cls-4" cx="184.5" cy="148.91" rx="27.97" ry="13.57"/><rect class="logo-cls-4" x="156.53" y="126.07" width="55.94" height="22.83"/><ellipse class="logo-cls-5" cx="184.5" cy="126.07" rx="27.97" ry="13.57"/><ellipse class="logo-cls-1" cx="184.49" cy="123.82" rx="16.65" ry="7.23"/><ellipse class="logo-cls-4" cx="231.51" cy="176.47" rx="27.97" ry="13.57"/><rect class="logo-cls-4" x="203.54" y="153.64" width="55.94" height="22.83"/><ellipse class="logo-cls-5" cx="231.51" cy="153.64" rx="27.97" ry="13.57"/><ellipse class="logo-cls-1" cx="231.5" cy="151.39" rx="16.65" ry="7.23"/><ellipse class="logo-cls-4" cx="137.02" cy="176.47" rx="27.97" ry="13.57"/><rect class="logo-cls-4" x="109.04" y="153.64" width="55.94" height="22.83"/><ellipse class="logo-cls-5" cx="137.02" cy="153.64" rx="27.97" ry="13.57"/><ellipse class="logo-cls-1" cx="137.01" cy="151.39" rx="16.65" ry="7.23"/><ellipse class="logo-cls-4" cx="179.82" cy="204.86" rx="27.97" ry="13.57"/><rect class="logo-cls-4" x="151.84" y="182.03" width="55.94" height="22.83"/><ellipse class="logo-cls-5" cx="179.82" cy="182.03" rx="27.97" ry="13.57"/><ellipse class="logo-cls-1" cx="179.81" cy="179.78" rx="16.65" ry="7.23"/><path class="logo-cls-6" d="M335,380.84c.77-1.91-50.93,55.21,4.25,3.79C395.73,330.08,470.08,253,470.08,253l-5.3-5.48Z" transform="translate(-129.3 -247.54)"/><path class="logo-cls-6" d="M353.54,386.53c1.35-1.55-66.13,35.61,2.79,5,71.12-33.19,166.52-81.83,166.52-81.83l-3.22-6.91Z" transform="translate(-129.3 -247.54)"/></svg>